<svg width="36" height="27" viewBox="0 0 36 27" fill="none" xmlns="http://www.w3.org/2000/svg">
<path d="M11.348 26.504C9.188 26.504 7.268 25.988 5.588 24.956C3.908 23.924 2.588 22.424 1.628 20.456C0.692 18.464 0.224 16.112 0.224 13.4C0.224 10.688 0.692 8.348 1.628 6.38C2.588 4.388 3.908 2.876 5.588 1.844C7.268 0.811999 9.188 0.295998 11.348 0.295998C13.484 0.295998 15.392 0.811999 17.072 1.844C18.752 2.876 20.06 4.388 20.996 6.38C21.956 8.348 22.436 10.688 22.436 13.4C22.436 16.112 21.956 18.464 20.996 20.456C20.06 22.424 18.752 23.924 17.072 24.956C15.392 25.988 13.484 26.504 11.348 26.504ZM11.348 20.672C12.548 20.672 13.496 20.096 14.192 18.944C14.912 17.768 15.272 15.92 15.272 13.4C15.272 10.88 14.912 9.044 14.192 7.892C13.496 6.716 12.548 6.128 11.348 6.128C10.124 6.128 9.152 6.716 8.432 7.892C7.736 9.044 7.388 10.88 7.388 13.4C7.388 15.92 7.736 17.768 8.432 18.944C9.152 20.096 10.124 20.672 11.348 20.672ZM35.3873 0.799998V26H28.2593V6.308H23.5793V0.799998H35.3873Z" fill="url(#paint0_linear)"/>
<defs>
<linearGradient id="paint0_linear" x1="-4.11039" y1="11.2853" x2="10.0535" y2="11.2853" gradientUnits="userSpaceOnUse">
<stop stop-color="#FF6400"/>
<stop offset="0.0001" stop-color="#FF6400"/>
<stop offset="1" stop-color="#FF0064"/>
</linearGradient>
</defs>
</svg>
