<svg width="17" height="13" viewBox="0 0 17 13" fill="none" xmlns="http://www.w3.org/2000/svg">
<path d="M5.488 12.224C4.528 12.224 3.67467 11.9947 2.928 11.536C2.18133 11.0773 1.59467 10.4107 1.168 9.536C0.752 8.65067 0.544 7.60533 0.544 6.4C0.544 5.19467 0.752 4.15467 1.168 3.28C1.59467 2.39467 2.18133 1.72267 2.928 1.264C3.67467 0.805333 4.528 0.575999 5.488 0.575999C6.43733 0.575999 7.28533 0.805333 8.032 1.264C8.77867 1.72267 9.36 2.39467 9.776 3.28C10.2027 4.15467 10.416 5.19467 10.416 6.4C10.416 7.60533 10.2027 8.65067 9.776 9.536C9.36 10.4107 8.77867 11.0773 8.032 11.536C7.28533 11.9947 6.43733 12.224 5.488 12.224ZM5.488 9.632C6.02133 9.632 6.44267 9.376 6.752 8.864C7.072 8.34133 7.232 7.52 7.232 6.4C7.232 5.28 7.072 4.464 6.752 3.952C6.44267 3.42933 6.02133 3.168 5.488 3.168C4.944 3.168 4.512 3.42933 4.192 3.952C3.88267 4.464 3.728 5.28 3.728 6.4C3.728 7.52 3.88267 8.34133 4.192 8.864C4.512 9.376 4.944 9.632 5.488 9.632ZM16.1721 0.799999V12H13.0041V3.248H10.9241V0.799999H16.1721Z" fill="url(#paint0_linear)"/>
<defs>
<linearGradient id="paint0_linear" x1="-1.43556" y1="4.97116" x2="5.10163" y2="4.97116" gradientUnits="userSpaceOnUse">
<stop stop-color="#FF6400"/>
<stop offset="0.0001" stop-color="#FF6400"/>
<stop offset="1" stop-color="#FF0064"/>
</linearGradient>
</defs>
</svg>
