<svg width="45" height="27" viewBox="0 0 45 27" fill="none" xmlns="http://www.w3.org/2000/svg">
<path d="M11.348 26.504C9.188 26.504 7.268 25.988 5.588 24.956C3.908 23.924 2.588 22.424 1.628 20.456C0.692 18.464 0.224 16.112 0.224 13.4C0.224 10.688 0.692 8.348 1.628 6.38C2.588 4.388 3.908 2.876 5.588 1.844C7.268 0.811999 9.188 0.295998 11.348 0.295998C13.484 0.295998 15.392 0.811999 17.072 1.844C18.752 2.876 20.06 4.388 20.996 6.38C21.956 8.348 22.436 10.688 22.436 13.4C22.436 16.112 21.956 18.464 20.996 20.456C20.06 22.424 18.752 23.924 17.072 24.956C15.392 25.988 13.484 26.504 11.348 26.504ZM11.348 20.672C12.548 20.672 13.496 20.096 14.192 18.944C14.912 17.768 15.272 15.92 15.272 13.4C15.272 10.88 14.912 9.044 14.192 7.892C13.496 6.716 12.548 6.128 11.348 6.128C10.124 6.128 9.152 6.716 8.432 7.892C7.736 9.044 7.388 10.88 7.388 13.4C7.388 15.92 7.736 17.768 8.432 18.944C9.152 20.096 10.124 20.672 11.348 20.672ZM44.0633 20.348V26H24.4433V21.536L33.8753 12.716C34.7873 11.852 35.3993 11.12 35.7113 10.52C36.0233 9.896 36.1793 9.272 36.1793 8.648C36.1793 7.832 35.9033 7.196 35.3513 6.74C34.7993 6.284 33.9953 6.056 32.9393 6.056C32.0033 6.056 31.1393 6.272 30.3473 6.704C29.5793 7.112 28.9433 7.712 28.4393 8.504L23.1473 5.552C24.1313 3.92 25.5113 2.636 27.2873 1.7C29.0633 0.763999 31.1633 0.295998 33.5873 0.295998C35.5073 0.295998 37.1993 0.607999 38.6633 1.232C40.1513 1.856 41.3033 2.756 42.1193 3.932C42.9593 5.084 43.3793 6.428 43.3793 7.964C43.3793 9.332 43.0793 10.628 42.4793 11.852C41.9033 13.052 40.7753 14.42 39.0953 15.956L34.3433 20.348H44.0633Z" fill="url(#paint0_linear)"/>
<defs>
<linearGradient id="paint0_linear" x1="-4.66866" y1="11.2853" x2="12.0375" y2="11.2853" gradientUnits="userSpaceOnUse">
<stop stop-color="#FF6400"/>
<stop offset="0.0001" stop-color="#FF6400"/>
<stop offset="1" stop-color="#FF0064"/>
</linearGradient>
</defs>
</svg>
