<svg width="44" height="27" viewBox="0 0 44 27" fill="none" xmlns="http://www.w3.org/2000/svg">
<path d="M11.348 26.504C9.188 26.504 7.268 25.988 5.588 24.956C3.908 23.924 2.588 22.424 1.628 20.456C0.692 18.464 0.224 16.112 0.224 13.4C0.224 10.688 0.692 8.348 1.628 6.38C2.588 4.388 3.908 2.876 5.588 1.844C7.268 0.811999 9.188 0.295998 11.348 0.295998C13.484 0.295998 15.392 0.811999 17.072 1.844C18.752 2.876 20.06 4.388 20.996 6.38C21.956 8.348 22.436 10.688 22.436 13.4C22.436 16.112 21.956 18.464 20.996 20.456C20.06 22.424 18.752 23.924 17.072 24.956C15.392 25.988 13.484 26.504 11.348 26.504ZM11.348 20.672C12.548 20.672 13.496 20.096 14.192 18.944C14.912 17.768 15.272 15.92 15.272 13.4C15.272 10.88 14.912 9.044 14.192 7.892C13.496 6.716 12.548 6.128 11.348 6.128C10.124 6.128 9.152 6.716 8.432 7.892C7.736 9.044 7.388 10.88 7.388 13.4C7.388 15.92 7.736 17.768 8.432 18.944C9.152 20.096 10.124 20.672 11.348 20.672ZM37.441 10.88C39.529 11.312 41.125 12.176 42.229 13.472C43.357 14.744 43.921 16.292 43.921 18.116C43.921 19.604 43.513 20.984 42.697 22.256C41.905 23.528 40.681 24.56 39.025 25.352C37.393 26.12 35.365 26.504 32.941 26.504C31.165 26.504 29.401 26.288 27.649 25.856C25.921 25.424 24.421 24.812 23.149 24.02L25.741 18.656C26.725 19.328 27.829 19.844 29.053 20.204C30.301 20.564 31.525 20.744 32.725 20.744C33.949 20.744 34.921 20.516 35.641 20.06C36.361 19.604 36.721 18.956 36.721 18.116C36.721 16.484 35.437 15.668 32.869 15.668H29.881V11.168L34.381 6.308H24.445V0.799998H42.661V5.264L37.441 10.88Z" fill="url(#paint0_linear)"/>
<defs>
<linearGradient id="paint0_linear" x1="-4.66866" y1="11.2853" x2="12.0375" y2="11.2853" gradientUnits="userSpaceOnUse">
<stop stop-color="#FF6400"/>
<stop offset="0.0001" stop-color="#FF6400"/>
<stop offset="1" stop-color="#FF0064"/>
</linearGradient>
</defs>
</svg>
