<svg width="20" height="13" viewBox="0 0 20 13" fill="none" xmlns="http://www.w3.org/2000/svg">
<path d="M5.488 12.224C4.528 12.224 3.67467 11.9947 2.928 11.536C2.18133 11.0773 1.59467 10.4107 1.168 9.536C0.752 8.65067 0.544 7.60533 0.544 6.4C0.544 5.19467 0.752 4.15467 1.168 3.28C1.59467 2.39467 2.18133 1.72267 2.928 1.264C3.67467 0.805333 4.528 0.575999 5.488 0.575999C6.43733 0.575999 7.28533 0.805333 8.032 1.264C8.77867 1.72267 9.36 2.39467 9.776 3.28C10.2027 4.15467 10.416 5.19467 10.416 6.4C10.416 7.60533 10.2027 8.65067 9.776 9.536C9.36 10.4107 8.77867 11.0773 8.032 11.536C7.28533 11.9947 6.43733 12.224 5.488 12.224ZM5.488 9.632C6.02133 9.632 6.44267 9.376 6.752 8.864C7.072 8.34133 7.232 7.52 7.232 6.4C7.232 5.28 7.072 4.464 6.752 3.952C6.44267 3.42933 6.02133 3.168 5.488 3.168C4.944 3.168 4.512 3.42933 4.192 3.952C3.88267 4.464 3.728 5.28 3.728 6.4C3.728 7.52 3.88267 8.34133 4.192 8.864C4.512 9.376 4.944 9.632 5.488 9.632ZM17.0849 5.28C18.0129 5.472 18.7222 5.856 19.2129 6.432C19.7142 6.99733 19.9649 7.68533 19.9649 8.496C19.9649 9.15733 19.7835 9.77067 19.4209 10.336C19.0689 10.9013 18.5249 11.36 17.7889 11.712C17.0635 12.0533 16.1622 12.224 15.0849 12.224C14.2955 12.224 13.5115 12.128 12.7329 11.936C11.9649 11.744 11.2982 11.472 10.7329 11.12L11.8849 8.736C12.3222 9.03467 12.8129 9.264 13.3569 9.424C13.9115 9.584 14.4555 9.664 14.9889 9.664C15.5329 9.664 15.9649 9.56267 16.2849 9.36C16.6049 9.15733 16.7649 8.86933 16.7649 8.496C16.7649 7.77067 16.1942 7.408 15.0529 7.408H13.7249V5.408L15.7249 3.248H11.3089V0.799999H19.4049V2.784L17.0849 5.28Z" fill="url(#paint0_linear)"/>
<defs>
<linearGradient id="paint0_linear" x1="-1.67482" y1="4.97116" x2="5.9519" y2="4.97116" gradientUnits="userSpaceOnUse">
<stop stop-color="#FF6400"/>
<stop offset="0.0001" stop-color="#FF6400"/>
<stop offset="1" stop-color="#FF0064"/>
</linearGradient>
</defs>
</svg>
