<svg width="19" height="16" viewBox="0 0 19 16" fill="none" xmlns="http://www.w3.org/2000/svg">
<path d="M7.24745 14.2424L5.5 9L8.00021 9.3038L10.9039 11.6742L8.07122 14.4419C7.80718 14.6999 7.36419 14.5926 7.24745 14.2424Z" fill="#BEBEBE"/>
<path d="M18.1669 0.319793C13.2104 2.21324 4.77426 5.29205 1.42163 6.49708C0.968663 6.65988 0.965061 7.35093 1.41742 7.51542L5.5 9L7.26184 14.2855C7.3267 14.4801 7.60748 14.4626 7.6477 14.2615L8.5 10L15.3497 15.4798C15.6443 15.7155 16.0839 15.5523 16.1535 15.1815L18.8347 0.881516C18.9069 0.496617 18.5327 0.180043 18.1669 0.319793Z" fill="white"/>
<path d="M5.84769 8.79455L14.937 3.42359C15.1427 3.30205 15.3498 3.57828 15.1755 3.74168L8.6169 9.89041C8.54087 9.96168 8.48901 10.0549 8.46858 10.1571L7.6477 14.2615C7.60748 14.4626 7.3267 14.4801 7.26184 14.2855L5.62771 9.38313C5.5532 9.15961 5.64485 8.91441 5.84769 8.79455Z" fill="#E2E2E2"/>
</svg>
