<svg width="274" height="403" viewBox="0 0 274 403" fill="none" xmlns="http://www.w3.org/2000/svg">
<path fill-rule="evenodd" clip-rule="evenodd" d="M211.484 0C211.484 0 234.878 30.0955 217.346 55.0682C200.117 79.5908 161.12 93.1804 145.137 98.7502C142.562 99.6475 140.585 100.337 139.392 100.83C139.392 100.83 122.953 64.1433 177.049 30.8241C199.704 16.8694 211.484 0 211.484 0ZM189.131 40.2694C187.534 41.3236 185.956 42.365 184.424 43.3988C183.103 44.2942 181.788 45.1732 180.486 46.0436C166.233 55.5719 153.546 64.0526 151.26 81.4321C211.837 63.3042 209.43 34.3459 208.072 26.11C202.717 31.3048 195.757 35.8976 189.131 40.2694Z" fill="url(#paint0_linear)"/>
<path fill-rule="evenodd" clip-rule="evenodd" d="M223.74 283.513C248.768 283.513 256.032 258.672 256.032 258.672C275.043 278.092 283.721 322.992 257.004 364.338C240.554 389.796 210.944 402.978 179.402 402.978C125.306 402.978 99.7588 366.005 95.4973 354.501C144.438 354.501 154.01 327.982 154.01 310.793C144.162 318.455 128.662 323.246 116.672 323.246C96.4688 323.246 83.8389 311.4 83.8389 294.542C83.8389 274.802 105.113 262.448 116.551 255.824C118.207 254.863 119.609 254.035 120.713 253.34C140.74 240.346 153.767 228.257 156.869 213.595C141.411 218.68 125.689 222.925 109.772 226.314C104.164 227.44 99.1515 228.455 95.2654 229.361C55.83 238.557 27.3243 263.994 27.3243 297.81C27.3243 368.433 94.7465 390.26 94.7465 390.26C94.7465 390.26 78.1421 403 46.2471 403C2.34045 403 -36.013 381.317 -56.349 344.885C-78.4183 305.394 -78.5839 253.439 -48.0137 210.979C-14.2529 164.102 47.0751 142.42 110.346 126.389C222.19 98.011 234.779 66.9187 241.155 51.1694C241.273 50.8782 241.389 50.5922 241.503 50.3115C241.503 50.3115 322.726 130.816 224.667 216.135C205.391 232.916 195.808 244.872 195.808 260.593C195.808 270.132 203.128 283.513 223.74 283.513ZM179.424 387.886C195.135 387.886 224.402 383.68 244.815 355.494C260.172 334.22 264.953 305.405 257.655 284.606C250.137 292.234 238.169 299.322 223.751 299.322C215.365 299.228 207.146 296.977 199.882 292.786C194.387 289.782 189.72 285.465 186.297 280.219C182.874 274.974 180.801 268.964 180.264 262.724C179.193 249.575 184.404 228.776 215.316 204.311C277.98 154.718 256.054 99.2856 243.623 77.6138C218.915 110.712 167.832 125.12 114.034 140.289C54.0415 157.191 -4.96813 176.688 -35.1629 218.873C-61.7256 255.979 -62.8296 302.358 -43.0456 337.532C-23.6149 372.386 15.2243 391.618 58.5238 387.312C27.1698 366.06 9.1191 331.648 12.3649 296.43C16.0965 256.012 45.8276 225.453 91.9202 214.733C92.2735 214.651 92.6355 214.567 93.0058 214.481C96.8363 213.591 101.562 212.493 106.858 211.597C157.179 203.074 170.89 192.31 170.89 192.31C170.89 192.31 180.341 234.406 128.938 266.047C127.679 266.82 126.056 267.814 124.135 268.918L124.118 268.928C115.314 274.042 98.9418 283.553 98.9418 294.586C98.9418 306.454 108.823 308.938 117.114 308.938C125.197 308.97 133.2 307.335 140.623 304.137C148.046 300.938 154.731 296.244 160.259 290.346C160.259 290.346 175.053 318.035 157.101 341.131C150.687 349.389 139.658 359.778 119.212 364.117C132.89 378.657 155.611 387.886 179.424 387.886Z" fill="url(#paint1_linear)"/>
<defs>
<linearGradient id="paint0_linear" x1="168.743" y1="0" x2="168.743" y2="402.657" gradientUnits="userSpaceOnUse">
<stop/>
<stop offset="0.0001" stop-color="#717171"/>
<stop offset="1" stop-color="#272727"/>
</linearGradient>
<linearGradient id="paint1_linear" x1="168.743" y1="0" x2="168.743" y2="402.657" gradientUnits="userSpaceOnUse">
<stop/>
<stop offset="0.0001" stop-color="#717171"/>
<stop offset="1" stop-color="#272727"/>
</linearGradient>
</defs>
</svg>
